#!OML:ASF X:\für Bonn\!DataBase\2005_08_12_Daniel\c3d\Daniel.ASF
:FULLY-SPECIFIED
:DEGREES
167
root 0.584473 17.3515 18.178 -730.906 48.5424 -4.53276
lowerback 12.3042 -2.90149 4.84189
upperback 1.89572 -3.28694 -2.03679
thorax -5.29495 -1.71466 -4.32653
lowerneck 0.681012 5.31903 2.92585
upperneck 8.59225 8.38156 -13.8765
head 3.13529 3.90022 -4.44224
rclavicle 8.31914e-014 -4.77083e-015
rhumerus -18.5857 15.2986 -74.6429
rradius 121.319
rwrist -15.2292
rhand -17.4705 25.5012
rfingers 7.12502
rthumb 8.78138 -4.29609
lclavicle 8.31914e-014 -4.77083e-015
lhumerus -37.5731 29.6696 68.8487
lradius 29.2701
lwrist -20.4442
lhand -11.2793 -5.61323
lfingers 7.12502
lthumb 14.7515 23.8419
rfemur 6.79414 14.7632 22.6496
rtibia 20.6671
rfoot -19.6604 4.40366
rtoes -15.1384
lfemur -16.0138 -29.4584 -10.3488
ltibia 35.8028
lfoot -15.9213 -17.367
ltoes -11.9651
168
root 0.519973 17.3559 18.1617 -731.058 49.2591 -4.67514
lowerback 12.5421 -2.87197 5.00791
upperback 1.96684 -3.2082 -1.97064
thorax -5.34745 -1.67653 -4.35788
lowerneck 0.862256 6.02252 3.19542
upperneck 8.44319 9.37355 -14.3588
head 3.18287 4.40056 -4.59798
rclavicle 5.93124e-014 6.36111e-015
rhumerus -20.1555 16.7646 -76.4744
rradius 121.152
rwrist -14.9287
rhand -17.8265 25.4312
rfingers 7.12502
rthumb 8.43774 -4.38023
lclavicle 5.93124e-014 6.36111e-015
lhumerus -37.0886 29.3413 69.6637
lradius 29.6506
lwrist -19.9591
lhand -11.2895 -5.43891
lfingers 7.12502
lthumb 14.7416 24.0169
rfemur 6.9055 14.6062 22.8582
rtibia 20.3872
rfoot -19.6995 3.65893
rtoes -15.3086
lfemur -16.2909 -29.5378 -10.1876
ltibia 35.5193
lfoot -15.6811 -17.3698
ltoes -12.7219
169
root 0.457205 17.363 18.1458 -731.211 50.0014 -4.80317
lowerback 12.7689 -2.83966 5.19979
upperback 2.04959 -3.12335 -1.93289
thorax -5.38326 -1.63542 -4.4363
lowerneck 1.06752 6.70504 3.57449
upperneck 8.31884 10.3456 -14.8787
head 3.24696 4.8936 -4.78197
rclavicle -4.91992e-015 -1.74931e-014
rhumerus -21.8022 18.1298 -78.4157
rradius 120.878
rwrist -14.7917
rhand -18.1637 25.4142
rfingers 7.12502
rthumb 8.11236 -4.41005
lclavicle -4.91992e-015 -1.74931e-014
lhumerus -36.5803 29.0529 70.4444
lradius 29.9965
lwrist -19.5357
lhand -11.2799 -5.30585
lfingers 7.12502
lthumb 14.7508 24.1493
rfemur 7.08897 14.4636 23.0559
rtibia 20.0119
rfoot -19.6887 2.88693
rtoes -15.4817
lfemur -16.5269 -29.5346 -10.1019
ltibia 35.2209
lfoot -15.4761 -17.2328
ltoes -13.6138
170
root 0.395453 17.3722 18.1306 -731.385 50.7825 -4.9624
lowerback 12.9867 -2.79812 5.46427
upperback 2.12258 -3.01701 -1.91694
thorax -5.4261 -1.58579 -4.58386
lowerneck 1.31972 7.34644 3.94725
upperneck 8.21004 11.2636 -15.3557
head 3.30882 5.36284 -4.95334
rclavicle 1.36913e-014 -6.36111e-015
rhumerus -23.5132 19.3368 -80.4244
rradius 120.46
rwrist -14.8572
rhand -18.4739 25.4229
rfingers 7.12502
rthumb 7.81295 -4.41274
lclavicle 1.36913e-014 -6.36111e-015
lhumerus -36.0359 28.6285 71.2515
lradius 30.3098
lwrist -19.0588
lhand -11.2831 -5.2361
lfingers 7.12502
lthumb 14.7477 24.2193
rfemur 7.34112 14.3657 23.2818
rtibia 19.5202
rfoot -19.613 2.03954
rtoes -15.6043
lfemur -16.7446 -29.4887 -10.0432
ltibia 34.9206
lfoot -15.3389 -16.9449
ltoes -14.671
171
root 0.335475 17.3834 18.117 -731.549 51.616 -5.09549
lowerback 13.1773 -2.74406 5.75706
upperback 2.20331 -2.89179 -1.9244
thorax -5.4447 -1.52673 -4.77781
lowerneck 1.58003 7.9363 4.12119
upperneck 8.09842 12.0978 -15.6643
head 3.34646 5.79045 -5.0437
rclavicle -6.7711e-014 2.78299e-014
rhumerus -25.1983 20.335 -82.4381
rradius 119.847
rwrist -15.1147
rhand -18.7429 25.5786
rfingers 7.12502
rthumb 7.55334 -4.26655
lclavicle -6.7711e-014 2.78299e-014
lhumerus -35.4564 28.1709 72.0758
lradius 30.5684
lwrist -18.5312
lhand -11.2701 -5.23488
lfingers 7.12502
lthumb 14.7603 24.2196
rfemur 7.68865 14.343 23.5122
rtibia 18.9209
rfoot -19.5268 1.06635
rtoes -15.7097
lfemur -16.9239 -29.3714 -10.0687
ltibia 34.6243
lfoot -15.2684 -16.4835
ltoes -15.8633
